<svg xmlns="http://www.w3.org/2000/svg" xmlns:xlink="http://www.w3.org/1999/xlink" viewBox="0 0 143 143"><defs><style>.cls-1{fill:#fff;stroke-miterlimit:10;stroke-width:3px;stroke:url(#linear-gradient);}.cls-2{fill:url(#linear-gradient-2);}.cls-3{fill:url(#linear-gradient-3);}.cls-4{fill:url(#linear-gradient-4);}</style><linearGradient id="linear-gradient" y1="71.5" x2="143" y2="71.5" gradientUnits="userSpaceOnUse"><stop offset="0.02" stop-color="#a73728"/><stop offset="0.05" stop-color="#bf4b32"/><stop offset="0.08" stop-color="#d15939"/><stop offset="0.11" stop-color="#dc613e"/><stop offset="0.15" stop-color="#df643f"/><stop offset="0.18" stop-color="#df704e"/><stop offset="0.22" stop-color="#df8f77"/><stop offset="0.28" stop-color="#dec1b8"/><stop offset="0.29" stop-color="#dec3bb"/><stop offset="0.4" stop-color="#dde5e7" stop-opacity="0.9"/><stop offset="0.45" stop-color="#cbdfe4" stop-opacity="0.93"/><stop offset="0.55" stop-color="#9bcedd" stop-opacity="0.99"/><stop offset="0.56" stop-color="#96ccdc"/><stop offset="0.57" stop-color="#92cbdb"/><stop offset="0.66" stop-color="#52b3c4"/><stop offset="0.72" stop-color="#29a5b6"/><stop offset="0.76" stop-color="#1a9fb1"/><stop offset="0.81" stop-color="#15859a"/><stop offset="0.88" stop-color="#116f86"/><stop offset="0.94" stop-color="#0e6179"/><stop offset="1" stop-color="#0d5c75"/></linearGradient><linearGradient id="linear-gradient-2" x1="43.86" y1="97.48" x2="83.59" y2="127.45" gradientUnits="userSpaceOnUse"><stop offset="0" stop-color="#dde5e7"/><stop offset="0.26" stop-color="#de9b86"/><stop offset="0.47" stop-color="#df643f"/><stop offset="0.64" stop-color="#dc623e"/><stop offset="0.77" stop-color="#d35a3a"/><stop offset="0.88" stop-color="#c34d33"/><stop offset="0.98" stop-color="#ad3b2a"/><stop offset="1" stop-color="#a73728"/></linearGradient><linearGradient id="linear-gradient-3" x1="72.26" y1="59.84" x2="111.98" y2="89.82" xlink:href="#linear-gradient-2"/><linearGradient id="linear-gradient-4" x1="27.08" y1="40.45" x2="53.25" y2="64.72" gradientUnits="userSpaceOnUse"><stop offset="0" stop-color="#0d5c75"/><stop offset="0.13" stop-color="#0e6079"/><stop offset="0.27" stop-color="#106d84"/><stop offset="0.41" stop-color="#148297"/><stop offset="0.55" stop-color="#199fb1"/><stop offset="0.65" stop-color="#1ca0b2"/><stop offset="0.73" stop-color="#25a3b5"/><stop offset="0.79" stop-color="#35a9bb"/><stop offset="0.86" stop-color="#4cb1c2"/><stop offset="0.91" stop-color="#69bbcc"/><stop offset="0.97" stop-color="#8cc8d8"/><stop offset="1" stop-color="#a5d1e1"/></linearGradient></defs><title>Asset 3</title><g id="Layer_2" data-name="Layer 2"><g id="Layer_8" data-name="Layer 8"><circle class="cls-1" cx="71.5" cy="71.5" r="70"/><polygon class="cls-2" points="34.45 97.53 42.88 97.53 42.88 89.6 34.45 97.32 34.45 97.53"/><path class="cls-3" d="M104.78,46.25a22.21,22.21,0,0,0-10.57-2.61c-.41,0-.82,0-1.22,0l-21.85,20a22.25,22.25,0,0,1,.13,2.36V97.53h8.21V66.05q0-7.26,4.06-10.78a15,15,0,0,1,10.24-3.52,13.77,13.77,0,0,1,9.77,3.52q3.78,3.52,3.79,10.78V97.53h8.32V66.05a23.41,23.41,0,0,0-3-12.17A20.13,20.13,0,0,0,104.78,46.25Z"/><path class="cls-4" d="M76.64,43.05a17,17,0,0,0-7.9,6.46A20,20,0,0,0,60.26,43,26.84,26.84,0,0,0,50,40.87a22.29,22.29,0,0,0-7.79,1.6A16.82,16.82,0,0,0,35.77,47V41.51H27.34V94.66l8.43-7.73V63.38A14,14,0,0,1,38,55.22a13.18,13.18,0,0,1,5.49-4.64A15.72,15.72,0,0,1,50,49.08,15.17,15.17,0,0,1,60.1,52.5C62.35,54.4,63.65,57.25,64,61L85.87,41A27,27,0,0,0,76.64,43.05Z"/></g></g></svg>