<svg xmlns="http://www.w3.org/2000/svg" xmlns:xlink="http://www.w3.org/1999/xlink" viewBox="0 0 427 100.05"><defs><style>.cls-1{fill:url(#linear-gradient);}.cls-2{fill:url(#linear-gradient-2);}.cls-3{fill:url(#linear-gradient-3);}.cls-4{fill:url(#linear-gradient-4);}.cls-5{fill:url(#linear-gradient-5);}.cls-6{fill:url(#linear-gradient-6);}.cls-7{fill:url(#linear-gradient-7);}.cls-8{fill:url(#linear-gradient-8);}</style><linearGradient id="linear-gradient" x1="249.67" y1="40.52" x2="389.34" y2="88.01" gradientUnits="userSpaceOnUse"><stop offset="0" stop-color="#dde5e7"/><stop offset="0.26" stop-color="#de9b86"/><stop offset="0.47" stop-color="#df643f"/><stop offset="0.64" stop-color="#dc623e"/><stop offset="0.77" stop-color="#d35a3a"/><stop offset="0.88" stop-color="#c34d33"/><stop offset="0.98" stop-color="#ad3b2a"/><stop offset="1" stop-color="#a73728"/></linearGradient><linearGradient id="linear-gradient-2" x1="256.32" y1="21.82" x2="395.99" y2="69.3" xlink:href="#linear-gradient"/><linearGradient id="linear-gradient-3" x1="264.38" y1="-1.9" x2="404.05" y2="45.58" xlink:href="#linear-gradient"/><linearGradient id="linear-gradient-4" x1="169.35" y1="98.91" x2="225.14" y2="141" xlink:href="#linear-gradient"/><linearGradient id="linear-gradient-5" x1="209.23" y1="46.05" x2="265.02" y2="88.14" xlink:href="#linear-gradient"/><linearGradient id="linear-gradient-6" x1="37.39" y1="62.54" x2="166.51" y2="91.88" gradientUnits="userSpaceOnUse"><stop offset="0" stop-color="#0d5c75"/><stop offset="0.63" stop-color="#199fb1"/><stop offset="0.72" stop-color="#1ca0b2"/><stop offset="0.78" stop-color="#25a3b5"/><stop offset="0.83" stop-color="#35a9bb"/><stop offset="0.88" stop-color="#4cb1c2"/><stop offset="0.93" stop-color="#69bbcc"/><stop offset="0.97" stop-color="#8cc8d8"/><stop offset="1" stop-color="#a5d1e1"/></linearGradient><linearGradient id="linear-gradient-7" x1="40.6" y1="48.4" x2="169.72" y2="77.75" xlink:href="#linear-gradient-6"/><linearGradient id="linear-gradient-8" x1="145.78" y1="18.81" x2="182.53" y2="52.89" gradientUnits="userSpaceOnUse"><stop offset="0" stop-color="#0d5c75"/><stop offset="0.13" stop-color="#0e6079"/><stop offset="0.27" stop-color="#106d84"/><stop offset="0.41" stop-color="#148297"/><stop offset="0.55" stop-color="#199fb1"/><stop offset="0.65" stop-color="#1ca0b2"/><stop offset="0.73" stop-color="#25a3b5"/><stop offset="0.79" stop-color="#35a9bb"/><stop offset="0.86" stop-color="#4cb1c2"/><stop offset="0.91" stop-color="#69bbcc"/><stop offset="0.97" stop-color="#8cc8d8"/><stop offset="1" stop-color="#a5d1e1"/></linearGradient></defs><title>Asset 4</title><g id="Layer_2" data-name="Layer 2"><g id="Layer_8" data-name="Layer 8"><path class="cls-1" d="M308,99.89q-10.43-.3-17.41-5.88t-7-16.29q0-11.16,6.55-17.49T308,52.12a75.87,75.87,0,0,1,25.3.75V47.51A10.75,10.75,0,0,0,330,39.25a17,17,0,0,0-8.41-4.09,31,31,0,0,0-10.72-.23,32.26,32.26,0,0,0-10.49,3.43,19.81,19.81,0,0,0-7.59,6.77l-7.29-7.74a31.76,31.76,0,0,1,11.24-8.78,45.39,45.39,0,0,1,13.76-4,42.91,42.91,0,0,1,13.84.45A30.54,30.54,0,0,1,336.08,30a15.71,15.71,0,0,1,6.77,7.66A33.72,33.72,0,0,1,345,48.4q.28,6.1.29,13.1V99.15H333.4v-7a38.81,38.81,0,0,1-12.2,6A44.27,44.27,0,0,1,308,99.89ZM333.1,82.44V63Q315.39,60.72,305,64.14T294.56,78.43a9.89,9.89,0,0,0,2.75,7.44,14,14,0,0,0,7.14,3.57,31,31,0,0,0,9.6.3,42.15,42.15,0,0,0,10.27-2.53A35.09,35.09,0,0,0,333.1,82.44Z"/><path class="cls-2" d="M360.18,100V26.49h11.76v6.85a20.21,20.21,0,0,1,12.13-6.7q7.21-1.18,18.23,1.93L396.79,39a20.44,20.44,0,0,0-12.42-.82,18.24,18.24,0,0,0-9.16,5.43,11.75,11.75,0,0,0-3.27,8.34V100Z"/><path class="cls-3" d="M419.11,15.77a7.59,7.59,0,0,1-5.58-2.3,7.63,7.63,0,0,1-2.3-5.58,7.63,7.63,0,0,1,2.3-5.58,7.91,7.91,0,0,1,11.17,0A7.63,7.63,0,0,1,427,7.89a7.63,7.63,0,0,1-2.3,5.58A7.6,7.6,0,0,1,419.11,15.77ZM424.77,100H413.61V25.6h11.16Z"/><polygon class="cls-4" points="156.13 98.97 167.97 98.97 167.97 87.83 156.13 98.69 156.13 98.97"/><path class="cls-5" d="M254.9,27a31.07,31.07,0,0,0-14.84-3.67c-.57,0-1.15,0-1.72,0L207.66,51.45a31.78,31.78,0,0,1,.18,3.31V99h11.54V54.76q0-10.18,5.69-15.14t14.39-4.94q8.4,0,13.72,4.94t5.32,15.14V99h11.69V54.76q0-10-4.2-17.08A28.24,28.24,0,0,0,254.9,27Z"/><path class="cls-6" d="M61.31,89.24a40.59,40.59,0,0,1-16.22,9.38,35.08,35.08,0,0,1-16.44.81,33.26,33.26,0,0,1-14.44-6.69A37.26,37.26,0,0,1,3.87,79.64,41.52,41.52,0,0,1,0,61.26,41.29,41.29,0,0,1,3.79,43,33.1,33.1,0,0,1,28.57,24.36a37.34,37.34,0,0,1,16.6,1.11,43.08,43.08,0,0,1,16.29,9.16L54,43.11a28.59,28.59,0,0,0-13.91-6.92,23.89,23.89,0,0,0-13.77,1.49,23.43,23.43,0,0,0-10.42,8.78q-4,6-4,14.8,0,9.38,4.09,15.85a23.9,23.9,0,0,0,10.64,9.38,23.34,23.34,0,0,0,13.91,1.56q7.37-1.33,13.77-7.74Z"/><path class="cls-7" d="M94.8,99.66q-10.42-.3-17.42-5.88t-7-16.3q0-11.16,6.55-17.48T94.8,51.89a76.05,76.05,0,0,1,25.29.74V47.27A10.73,10.73,0,0,0,116.82,39a17,17,0,0,0-8.41-4.1A31.17,31.17,0,0,0,97.7,34.7a32.41,32.41,0,0,0-10.49,3.42,19.82,19.82,0,0,0-7.59,6.77l-7.29-7.73a31.81,31.81,0,0,1,11.23-8.78,44.81,44.81,0,0,1,13.77-4,42.93,42.93,0,0,1,13.84.44,30.59,30.59,0,0,1,11.75,4.91,15.68,15.68,0,0,1,6.77,7.67,33.61,33.61,0,0,1,2.16,10.79q.3,6.11.3,13.09V98.91H120.24v-7a38.68,38.68,0,0,1-12.2,6A43.86,43.86,0,0,1,94.8,99.66ZM120,81.35V61.86q-17.72-2.23-28.13,1.19T81.4,77.34a9.9,9.9,0,0,0,2.76,7.44,14,14,0,0,0,7.14,3.57,31,31,0,0,0,9.6.3,42.27,42.27,0,0,0,10.27-2.53A35.09,35.09,0,0,0,120,81.35Z"/><path class="cls-8" d="M215.38,22.46a24,24,0,0,0-11.09,9.07,28.29,28.29,0,0,0-11.91-9.22,38,38,0,0,0-14.47-2.92A31.47,31.47,0,0,0,167,21.64a23.84,23.84,0,0,0-9,6.29V20.29H146.14V94.94L158,84.09V51q0-7,3.07-11.46A18.63,18.63,0,0,1,168.77,33a22.11,22.11,0,0,1,9.14-2.1,21.34,21.34,0,0,1,14.24,4.8c3.17,2.66,5,6.67,5.52,12l30.68-28.12A38.23,38.23,0,0,0,215.38,22.46Z"/></g></g></svg>