<svg xmlns="http://www.w3.org/2000/svg" xmlns:xlink="http://www.w3.org/1999/xlink" viewBox="0 0 379.83 379.83"><defs><style>.cls-1{fill:#fff;stroke-miterlimit:10;stroke-width:3px;stroke:url(#linear-gradient);}.cls-2{fill:url(#linear-gradient-2);}.cls-3{fill:url(#linear-gradient-3);}.cls-4{fill:url(#linear-gradient-4);}</style><linearGradient id="linear-gradient" y1="189.91" x2="379.83" y2="189.91" gradientUnits="userSpaceOnUse"><stop offset="0.02" stop-color="#a73728"/><stop offset="0.05" stop-color="#bf4b32"/><stop offset="0.08" stop-color="#d15939"/><stop offset="0.11" stop-color="#dc613e"/><stop offset="0.15" stop-color="#df643f"/><stop offset="0.18" stop-color="#df704e"/><stop offset="0.22" stop-color="#df8f77"/><stop offset="0.28" stop-color="#dec1b8"/><stop offset="0.29" stop-color="#dec3bb"/><stop offset="0.4" stop-color="#dde5e7" stop-opacity="0.9"/><stop offset="0.45" stop-color="#cbdfe4" stop-opacity="0.93"/><stop offset="0.55" stop-color="#9bcedd" stop-opacity="0.99"/><stop offset="0.56" stop-color="#96ccdc"/><stop offset="0.57" stop-color="#92cbdb"/><stop offset="0.66" stop-color="#52b3c4"/><stop offset="0.72" stop-color="#29a5b6"/><stop offset="0.76" stop-color="#1a9fb1"/><stop offset="0.81" stop-color="#15859a"/><stop offset="0.88" stop-color="#116f86"/><stop offset="0.94" stop-color="#0e6179"/><stop offset="1" stop-color="#0d5c75"/></linearGradient><linearGradient id="linear-gradient-2" x1="115.52" y1="259.84" x2="222.45" y2="340.52" gradientUnits="userSpaceOnUse"><stop offset="0" stop-color="#dde5e7"/><stop offset="0.26" stop-color="#de9b86"/><stop offset="0.47" stop-color="#df643f"/><stop offset="0.64" stop-color="#dc623e"/><stop offset="0.77" stop-color="#d35a3a"/><stop offset="0.88" stop-color="#c34d33"/><stop offset="0.98" stop-color="#ad3b2a"/><stop offset="1" stop-color="#a73728"/></linearGradient><linearGradient id="linear-gradient-3" x1="191.95" y1="158.54" x2="298.88" y2="239.22" xlink:href="#linear-gradient-2"/><linearGradient id="linear-gradient-4" x1="70.36" y1="106.35" x2="140.79" y2="171.66" gradientUnits="userSpaceOnUse"><stop offset="0" stop-color="#0d5c75"/><stop offset="0.13" stop-color="#0e6079"/><stop offset="0.27" stop-color="#106d84"/><stop offset="0.41" stop-color="#148297"/><stop offset="0.55" stop-color="#199fb1"/><stop offset="0.65" stop-color="#1ca0b2"/><stop offset="0.73" stop-color="#25a3b5"/><stop offset="0.79" stop-color="#35a9bb"/><stop offset="0.86" stop-color="#4cb1c2"/><stop offset="0.91" stop-color="#69bbcc"/><stop offset="0.97" stop-color="#8cc8d8"/><stop offset="1" stop-color="#a5d1e1"/></linearGradient></defs><title>Asset 1</title><g id="Layer_2" data-name="Layer 2"><g id="Layer_8" data-name="Layer 8"><circle class="cls-1" cx="189.91" cy="189.91" r="188.41"/><polygon class="cls-2" points="90.2 259.97 112.89 259.97 112.89 238.62 90.2 259.42 90.2 259.97"/><path class="cls-3" d="M279.48,122a59.6,59.6,0,0,0-28.44-7c-1.1,0-2.2,0-3.29.08L189,168.9c.2,2,.34,4.12.34,6.34V260H211.4V175.24q0-19.53,10.92-29t27.57-9.47q16.1,0,26.29,9.47t10.19,29V260h22.41V175.24q0-19.23-8-32.74A54.12,54.12,0,0,0,279.48,122Z"/><path class="cls-4" d="M203.75,113.35a45.81,45.81,0,0,0-21.26,17.37,54.17,54.17,0,0,0-22.83-17.66,72.51,72.51,0,0,0-27.72-5.6,60.25,60.25,0,0,0-21,4.31,45.42,45.42,0,0,0-17.23,12.06V109.18H71.05V252.24l22.69-20.8V168.06q0-13.49,5.89-22a35.63,35.63,0,0,1,14.79-12.49,42.35,42.35,0,0,1,17.52-4q16.38,0,27.29,9.19c6.06,5.11,9.56,12.78,10.57,22.95l58.8-53.89A72.51,72.51,0,0,0,203.75,113.35Z"/></g></g></svg>